<svg data-v-423bf9ae="" xmlns="http://www.w3.org/2000/svg" viewBox="0 0 480 90" class="iconLeft"><g data-v-423bf9ae="" id="1dda492b-6206-4224-b225-915de0dd8e26" fill="white" transform="matrix(4.626060043539606,0,0,4.626060043539606,172.0494053675265,10.929065634023154)"><path d="M11.03 8.05L11.03 8.05Q11.03 9.10 9.53 10.79L9.53 10.79Q7.98 12.54 6.85 12.54L6.85 12.54Q6.15 12.54 4.67 12.01Q3.19 11.48 1.95 11.48L1.95 11.48Q1.29 11.48 1.04 11.66L1.04 11.66Q0.70 11.91 0.45 11.97L0.45 11.97Q0.36 11.89 0.36 11.86L0.36 11.86Q0.36 11.35 1.43 10.35L1.43 10.35Q2.42 9.39 2.76 9.37L2.76 9.37Q2.84 9.37 3.15 9.27Q3.46 9.18 4.12 9.18L4.12 9.18Q5.29 9.18 5.98 9.39L5.98 9.39Q7.85 10.02 8.71 10.23L8.71 10.23Q8.72 10.22 8.72 10.09L8.72 10.09Q8.72 9.39 7.99 8.69Q7.25 7.98 6.51 7.98L6.51 7.98L5.42 7.98Q5.38 7.98 5.29 7.92Q5.21 7.87 5.17 7.87L5.17 7.87L4.14 7.87Q3.93 7.87 2.97 7.49L2.97 7.49Q2.18 7.18 1.97 7.07L1.97 7.07Q1.71 6.94 1.41 6.30L1.41 6.30Q1.15 5.70 1.15 5.42L1.15 5.42Q1.15 4.54 1.85 3.53L1.85 3.53Q2.52 2.59 3.60 1.81L3.60 1.81Q3.88 1.55 4.17 1.30L4.17 1.30Q4.66 0.88 4.89 0.88L4.89 0.88Q4.96 0.88 5.00 0.92L5.00 0.92Q5.12 1.05 5.83 1.39Q6.54 1.74 6.69 1.74L6.69 1.74Q6.73 1.74 6.76 1.72Q6.79 1.71 6.83 1.71L6.83 1.71Q6.86 1.71 7.08 1.82Q7.29 1.93 7.39 1.95L7.39 1.95Q8.71 2.17 9.30 2.17L9.30 2.17Q9.70 2.17 9.75 2.15Q9.80 2.13 10.37 1.85L10.37 1.85L10.58 1.90Q10.08 3.00 9.09 3.73Q8.11 4.47 7.20 4.47L7.20 4.47Q5.98 4.47 5.04 4.20L5.04 4.20Q3.68 3.81 3.58 3.78L3.58 3.78Q3.70 4.05 3.81 4.30L3.81 4.30Q3.98 4.63 4.19 4.75L4.19 4.75Q5.74 5.56 6.82 5.56L6.82 5.56Q6.85 5.56 6.99 5.54Q7.14 5.53 7.18 5.53L7.18 5.53Q7.22 5.53 7.50 5.60Q7.78 5.67 7.83 5.67L7.83 5.67L8.85 5.67Q9.39 5.67 10.12 6.27Q10.84 6.87 10.91 7.35L10.91 7.35Q10.93 7.50 10.98 7.61Q11.03 7.71 11.03 8.05ZM20.41 7.03L20.41 7.03Q20.41 8.20 19.04 9.55L19.04 9.55Q17.67 10.78 16.31 12.01L16.31 12.01Q16.16 12.17 15.65 12.26L15.65 12.26Q15.20 12.36 14.84 12.36L14.84 12.36Q13.86 12.36 12.98 11.56L12.98 11.56Q12.05 10.72 12.05 9.67L12.05 9.67Q12.05 8.26 13.17 6.47L13.17 6.47Q14.34 4.61 15.76 3.89L15.76 3.89Q15.78 3.92 15.76 4.06L15.76 4.06Q15.76 4.17 15.82 4.17L15.82 4.17Q15.96 4.17 16.50 4.03Q17.04 3.89 17.47 3.89L17.47 3.89Q18.73 3.89 19.60 4.89L19.60 4.89Q20.41 5.82 20.41 7.03ZM18.26 9.32L18.26 9.32L18.26 8.29Q18.26 7.77 17.52 6.97Q16.79 6.17 16.34 6.09L16.34 6.09Q15.75 5.99 15.57 5.99L15.57 5.99Q14.69 5.99 14.41 6.45L14.41 6.45Q14.21 6.79 14.21 7.76L14.21 7.76Q14.21 8.71 15.04 9.48Q15.86 10.25 16.74 10.25L16.74 10.25Q17.23 10.25 17.43 10.12L17.43 10.12Q17.57 10.04 18.26 9.32ZM28.80 4.47L28.80 4.47Q28.80 5.00 27.47 5.98L27.47 5.98Q26.28 6.85 26.03 6.86L26.03 6.86Q25.94 6.87 25.72 6.89Q25.49 6.92 25.45 6.92L25.45 6.92Q24.67 6.92 23.95 6.19L23.95 6.19Q23.63 6.66 23.63 7.76L23.63 7.76Q23.63 8.78 24.15 9.53L24.15 9.53Q24.79 10.47 25.98 10.47L25.98 10.47Q26.39 10.47 26.88 10.22L26.88 10.22Q27.62 9.84 27.97 9.72L27.97 9.72Q27.76 10.57 26.46 11.50Q25.16 12.43 24.22 12.43L24.22 12.43Q22.99 12.43 22.29 11.54L22.29 11.54Q21.67 10.72 21.67 9.51L21.67 9.51Q21.67 9.49 21.77 8.50L21.77 8.50Q21.84 7.81 22.79 6.43L22.79 6.43Q23.00 6.13 23.91 5.22L23.91 5.22Q25.05 4.12 25.41 4.12L25.41 4.12Q25.72 4.12 26.16 4.54Q26.60 4.96 27.22 4.96L27.22 4.96Q27.55 4.96 27.87 4.77L27.87 4.77Q28.41 4.47 28.71 4.35L28.71 4.35Q28.80 4.44 28.80 4.47ZM36.96 4.54L37.18 4.54Q36.89 5.38 35.91 6.20Q34.93 7.03 34.12 7.03L34.12 7.03Q33.53 7.03 33.22 6.90L33.22 6.90Q32.84 6.73 32.56 6.27L32.56 6.27Q32.31 6.44 32.10 6.66L32.10 6.66L32.10 10.11Q32.19 10.16 32.47 10.54Q32.75 10.91 32.75 10.92L32.75 10.92Q32.75 11.38 31.82 12.17L31.82 12.17Q31.01 12.85 30.76 12.91L30.76 12.91Q30.37 12.38 30.04 12.07L30.04 12.07L30.04 8.60Q30.04 8.54 30.01 8.48Q29.97 8.43 29.97 8.39L29.97 8.39L29.97 6.90Q29.19 6.23 29.15 6.23L29.15 6.23Q29.12 6.23 28.57 6.55L28.57 6.55L28.38 6.50Q28.48 6.16 29.36 5.19L29.36 5.19Q30.37 4.09 30.90 4.09L30.90 4.09Q31.00 4.09 31.43 4.44L31.43 4.44Q31.71 4.68 32.00 4.90L32.00 4.90Q32.00 5.21 32.05 5.87L32.05 5.87Q33.19 4.68 34.43 4.00L34.43 4.00Q34.69 4.58 35.07 4.80L35.07 4.80Q35.39 4.97 35.98 4.97L35.98 4.97Q36.20 4.97 36.41 4.87L36.41 4.87Q36.68 4.70 36.96 4.54L36.96 4.54ZM46.19 10.44L46.19 10.44Q46.07 10.77 45.26 11.68L45.26 11.68Q44.38 12.68 43.97 12.68L43.97 12.68Q43.92 12.68 43.30 12.11L43.30 12.11Q42.64 11.51 42.62 11.28L42.62 11.28Q42.25 11.76 41.34 12.22Q40.43 12.68 39.91 12.68L39.91 12.68Q39.03 12.68 38.43 11.89L38.43 11.89Q37.91 11.20 37.91 10.46L37.91 10.46Q37.91 8.64 39.55 6.72L39.55 6.72Q41.01 5.01 42.31 4.65L42.31 4.65Q42.35 4.63 42.50 4.55Q42.66 4.47 42.71 4.47L42.71 4.47Q42.70 4.47 43.11 4.75Q43.53 5.04 44.02 5.04L44.02 5.04Q44.53 5.04 44.76 4.93L44.76 4.93Q44.94 4.83 45.18 4.86L45.18 4.86Q45.22 5.19 44.53 5.85L44.53 5.85L44.53 7.04Q44.53 7.10 44.58 7.24Q44.62 7.38 44.62 7.42L44.62 7.42L44.62 9.59Q44.98 9.94 45.68 10.58L45.68 10.58Q46.06 10.42 46.19 10.44ZM42.64 10.39L42.64 10.39L42.64 9.37Q42.64 9.31 42.60 9.17Q42.56 9.03 42.56 8.99L42.56 8.99L42.56 7.07Q42.53 7.06 42.00 7.06L42.00 7.06Q41.75 7.06 41.37 6.79L41.37 6.79Q41.10 6.59 40.84 6.40L40.84 6.40Q40.40 6.62 40.12 7.42L40.12 7.42Q39.89 8.09 39.89 8.67L39.89 8.67Q39.89 9.31 40.36 9.95L40.36 9.95Q40.91 10.71 41.68 10.71L41.68 10.71Q41.99 10.71 42.64 10.39ZM53.44 5.14L53.62 5.19Q53.55 5.73 52.66 6.50Q51.77 7.28 51.13 7.43L51.13 7.43L51.13 9.17Q51.13 9.35 50.96 10.02L50.96 10.02Q50.62 11.40 50.27 12.07L50.27 12.07Q49.59 13.38 48.37 13.85L48.37 13.85Q48.44 13.72 48.83 12.47L48.83 12.47Q49.24 11.13 49.24 10.79L49.24 10.79L49.24 7.21Q48.87 7.00 48.45 7.00L48.45 7.00Q48.09 7.00 47.74 7.15L47.74 7.15Q47.66 7.18 47.07 7.52L47.07 7.52L46.89 7.46Q46.96 7.00 47.78 6.26L47.78 6.26Q48.50 5.61 49.17 5.26L49.17 5.26L49.17 3.84Q49.17 3.78 48.85 3.48Q48.54 3.18 48.50 3.18L48.50 3.18Q48.47 3.18 48.31 3.26Q48.16 3.35 47.99 3.32L47.99 3.32Q48.10 2.98 48.87 2.13L48.87 2.13Q49.73 1.18 50.15 1.18L50.15 1.18Q50.22 1.18 51.04 2.00L51.04 2.00L51.04 4.76Q51.04 5.31 51.44 5.46L51.44 5.46Q51.63 5.54 52.21 5.54L52.21 5.54Q52.61 5.54 52.71 5.52Q52.81 5.49 53.44 5.14L53.44 5.14ZM57.76 1.85L57.97 1.85Q57.74 2.52 56.87 3.30Q56.01 4.09 55.52 4.03L55.52 4.03Q55.30 3.74 54.87 3.25L54.87 3.25Q54.45 3.57 54.28 3.57L54.28 3.57Q54.22 3.51 54.22 3.43L54.22 3.43Q54.22 3.02 55.24 2.10Q56.25 1.18 56.57 1.18L56.57 1.18Q56.71 1.18 57.04 1.53L57.04 1.53Q57.25 1.76 57.46 2.00L57.46 2.00Q57.55 1.96 57.76 1.85L57.76 1.85ZM58.02 9.34L58.02 9.34Q58.02 10.02 57.08 11.32Q56.14 12.61 55.61 12.60L55.61 12.60L55.44 12.60Q55.54 12.31 55.82 11.80L55.82 11.80Q56.03 11.44 56.03 11.14L56.03 11.14Q56.03 11.10 55.99 10.91Q55.94 10.72 55.94 10.67L55.94 10.67L55.94 8.53Q55.94 8.05 55.80 7.57L55.80 7.57Q55.61 6.93 55.24 6.93L55.24 6.93Q55.20 6.93 55.04 7.05Q54.88 7.17 54.82 7.17L54.82 7.17L54.57 7.17Q54.75 6.52 55.78 5.63L55.78 5.63Q56.73 4.79 57.06 4.82L57.06 4.82Q57.33 4.96 57.69 5.29L57.69 5.29Q57.95 5.80 57.95 6.64L57.95 6.64L57.95 8.76Q57.95 8.79 57.98 9.04Q58.02 9.28 58.02 9.34ZM66.47 4.47L66.47 4.47Q66.47 5.00 65.14 5.98L65.14 5.98Q63.95 6.85 63.70 6.86L63.70 6.86Q63.62 6.87 63.39 6.89Q63.17 6.92 63.13 6.92L63.13 6.92Q62.34 6.92 61.63 6.19L61.63 6.19Q61.31 6.66 61.31 7.76L61.31 7.76Q61.31 8.78 61.82 9.53L61.82 9.53Q62.47 10.47 63.66 10.47L63.66 10.47Q64.06 10.47 64.55 10.22L64.55 10.22Q65.30 9.84 65.65 9.72L65.65 9.72Q65.44 10.57 64.13 11.50Q62.83 12.43 61.89 12.43L61.89 12.43Q60.66 12.43 59.96 11.54L59.96 11.54Q59.35 10.72 59.35 9.51L59.35 9.51Q59.35 9.49 59.44 8.50L59.44 8.50Q59.51 7.81 60.47 6.43L60.47 6.43Q60.68 6.13 61.59 5.22L61.59 5.22Q62.72 4.12 63.08 4.12L63.08 4.12Q63.39 4.12 63.83 4.54Q64.27 4.96 64.89 4.96L64.89 4.96Q65.23 4.96 65.55 4.77L65.55 4.77Q66.08 4.47 66.39 4.35L66.39 4.35Q66.47 4.44 66.47 4.47Z"></path></g><g data-v-423bf9ae="" id="c318416d-568a-4f9a-a007-643b35be0874" transform="matrix(4.803586662404586,0,0,4.803586662404586,0.14261340152661717,-31.22538662899096)" stroke="none" fill="white"><path d="m16 19.586 7.496-12.954H8.504zM7.496 12.414 0 25.368h14.992zM24.504 12.414l-7.496 12.954H32z"></path></g></svg>